<svg xmlns="http://www.w3.org/2000/svg" xmlns:xlink="http://www.w3.org/1999/xlink" viewBox="0 0 31 31" fill-rule="evenodd" xmlns:v="https://vecta.io/nano"><clipPath id="A"><path d="M0 0h30.72v30.72H0z"/></clipPath><g clip-path="url(#A)"><path d="M4.45 23.317C.689 16.804 2.996 8.421 9.598 4.61s15.014-1.618 18.775 4.895 1.453 14.896-5.148 18.707S8.21 29.83 4.45 23.317z" fill="none" stroke="url(#C)" stroke-width=".93"/><ellipse cx="15.36" cy="15.36" rx="14.863" ry="14.702" fill="#fff"/><use xlink:href="#E" fill="#e15e98" fill-rule="nonzero"/><clipPath id="B"><use xlink:href="#E"/></clipPath><g clip-path="url(#B)"><g fill="#e6649e"><path d="M12.708 32.173L3.399 16.099h18.618l-9.309 16.074z"/><path d="M21.74 20.554L12.431 4.48h18.618L21.74 20.554zM7.504 6.516l4.517 7.799H2.988l4.516-7.799z"/></g><g fill="#f06ea8"><path d="M19.456 15.841l2.73 4.713h-5.46l2.73-4.713zM9.291 24.136l-2.73-4.714h5.46l-2.73 4.714zm16.867-8.529l2.729 4.714h-5.459l2.73-4.714zM3.831 7.244l2.73 4.714h-5.46l2.73-4.714zm-.533 7.071l2.73 4.714H.568l2.73-4.714zm8.723-8.393l2.73 4.714h-5.46l2.73-4.714zm2.213 13.5l-2.73-4.714h5.46l-2.73 4.714zm6.689-12.573l2.73 4.714h-5.46l2.73-4.714z"/><path d="M16.664 7.244l1.529 2.641h-3.058l1.529-2.641zm8.293 2.641l-1.529-2.641h3.058l-1.529 2.641zM9.034 7.12l-1.53-2.64h3.059L9.034 7.12zm4.188 15.696l1.529 2.64h-3.059l1.53-2.64zm9.749.379l-1.529-2.641H24.5l-1.529 2.641zm-17.24-3.364l1.529 2.64H4.201l1.53-2.64zm11.75-13.909l-2.73-4.714h5.46l-2.73 4.714zm9.749 3.679l2.73 4.714H24.5l2.73-4.714zm-.847 11.497l2.73 4.714h-5.46l2.73-4.714zm-6.69 1.373l2.73 4.714h-5.459l2.729-4.714z"/><path d="M16.964 24.627l2.729 4.714h-5.459l2.73-4.714z"/></g><path d="M30.177 8.463c4.328 7.496 1.673 17.143-5.924 21.53s-17.28 1.862-21.608-5.634S.972 7.216 8.57 2.829 25.85.967 30.177 8.463z" fill="none" stroke="url(#D)" stroke-width="4"/></g><text x="5.818" y="18.507" font-family="Aller-Bold, Aller" font-weight="700" font-size="11.524" fill="#fff">cln!</text></g><defs><linearGradient id="C" x1="0" y1="0" x2="1" y2="0" gradientUnits="userSpaceOnUse" gradientTransform="matrix(-13.627,-23.6027,23.9232,-13.8121,23.2246,28.2125)"><stop offset="0" stop-opacity=".21"/><stop offset=".58" stop-opacity="0"/></linearGradient><linearGradient id="D" x1="0" y1="0" x2="1" y2="0" gradientUnits="userSpaceOnUse" gradientTransform="matrix(15.683,27.1638,-27.5327,15.896,8.56961,2.82923)"><stop offset="0" stop-opacity=".21"/><stop offset=".58" stop-opacity="0"/></linearGradient><path id="E" d="M14.467 28.734c-.912-.078-1.575-.18-2.296-.352-3.897-.932-7.188-3.542-8.96-7.106a13.22 13.22 0 0 1-1.357-4.949c-.043-.568-.018-1.885.046-2.428a13.34 13.34 0 0 1 1.311-4.443c1.755-3.525 5.006-6.128 8.838-7.077 1.141-.282 2.112-.399 3.322-.398 2.489 0 4.887.658 6.978 1.914 3.785 2.275 6.182 6.138 6.516 10.503.044.573.019 1.932-.045 2.449-.199 1.618-.621 3.038-1.315 4.433-1.887 3.792-5.494 6.496-9.683 7.259-.802.146-1.284.187-2.289.197a28.91 28.91 0 0 1-1.066-.002h0z"/></defs></svg>