<svg xmlns="http://www.w3.org/2000/svg" xmlns:xlink="http://www.w3.org/1999/xlink" viewBox="0 0 31 31" fill-rule="evenodd" xmlns:v="https://vecta.io/nano"><clipPath id="A"><path d="M0 0h30.72v30.72H0z"/></clipPath><g clip-path="url(#A)"><path d="M4.45 23.317C.689 16.804 2.996 8.421 9.598 4.61s15.014-1.618 18.775 4.895 1.453 14.896-5.148 18.707S8.21 29.83 4.45 23.317z" fill="none" stroke="url(#C)" stroke-width=".93"/><ellipse cx="15.36" cy="15.36" rx="14.863" ry="14.702" fill="#fff"/><use xlink:href="#E" fill="#e15e98" fill-rule="nonzero"/><clipPath id="B"><use xlink:href="#E"/></clipPath><g clip-path="url(#B)"><g fill="#e6649e"><path d="M12.708 32.173L3.399 16.099h18.618l-9.309 16.074z"/><path d="M21.74 20.554L12.431 4.48h18.618L21.74 20.554zM7.504 6.516l4.517 7.799H2.988l4.516-7.799z"/></g><g fill="#f06ea8"><path d="M19.456 15.841l2.73 4.713h-5.46l2.73-4.713zM9.291 24.136l-2.73-4.714h5.46l-2.73 4.714zm16.867-8.529l2.729 4.714h-5.459l2.73-4.714zM3.831 7.244l2.73 4.714h-5.46l2.73-4.714zm-.533 7.071l2.73 4.714H.568l2.73-4.714zm8.723-8.393l2.73 4.714h-5.46l2.73-4.714zm2.213 13.5l-2.73-4.714h5.46l-2.73 4.714zm6.689-12.573l2.73 4.714h-5.46l2.73-4.714z"/><path d="M16.664 7.244l1.529 2.641h-3.058l1.529-2.641zm8.293 2.641l-1.529-2.641h3.058l-1.529 2.641zM9.034 7.12l-1.53-2.64h3.059L9.034 7.12zm4.188 15.696l1.529 2.64h-3.059l1.53-2.64zm9.749.379l-1.529-2.641H24.5l-1.529 2.641zm-17.24-3.364l1.529 2.64H4.201l1.53-2.64zm11.75-13.909l-2.73-4.714h5.46l-2.73 4.714zm9.749 3.679l2.73 4.714H24.5l2.73-4.714zm-.847 11.497l2.73 4.714h-5.46l2.73-4.714zm-6.69 1.373l2.73 4.714h-5.459l2.729-4.714z"/><path d="M16.964 24.627l2.729 4.714h-5.459l2.73-4.714z"/></g><path d="M30.177 8.463c4.328 7.496 1.673 17.143-5.924 21.53s-17.28 1.862-21.608-5.634S.972 7.216 8.57 2.829 25.85.967 30.177 8.463z" fill="none" stroke="url(#D)" stroke-width="4"/></g><g fill="#fff" fill-rule="nonzero"><path d="M10.624 17.101c.092.154.169.332.23.536a2.49 2.49 0 0 1 .092.72 3.53 3.53 0 0 1-.864.236c-.269.035-.549.052-.841.052-.5 0-.934-.078-1.303-.236s-.674-.374-.916-.651-.424-.605-.547-.985-.185-.794-.185-1.239c0-.438.06-.845.179-1.222s.3-.707.542-.991.543-.507.904-.668.78-.242 1.257-.242l.466.011c.142.008.279.023.409.046a3.48 3.48 0 0 1 .392.093l.438.149c0 .177-.023.375-.069.594s-.119.428-.219.628c-.231-.077-.432-.129-.605-.156a3.89 3.89 0 0 0-.594-.04c-.476 0-.835.156-1.077.467s-.363.755-.363 1.331c0 .622.131 1.075.392 1.36s.614.426 1.06.426l.317-.006a2.17 2.17 0 0 0 .282-.029 1.94 1.94 0 0 0 .283-.069l.34-.115zm1.429-7.018a4.97 4.97 0 0 1 .818-.069c.261 0 .53.023.806.069v6.05c0 .238.014.43.041.576s.069.26.127.34.132.137.224.167.208.046.346.046c.061 0 .129-.003.202-.011a1.82 1.82 0 0 0 .213-.035c.084.315.127.623.127.922v.167a.71.71 0 0 1-.023.167 2.08 2.08 0 0 1-.444.081l-.478.023c-.592 0-1.066-.163-1.424-.49s-.535-.858-.535-1.596v-6.407zm3.779 2.466l.323-.052c.108-.011.227-.017.357-.017l.346.017.311.052c.023.038.044.094.064.167l.052.231.04.236.029.196c.077-.115.169-.231.276-.346s.233-.219.375-.311.301-.167.478-.225a1.91 1.91 0 0 1 .588-.086c.676 0 1.185.184 1.527.553s.513.949.513 1.74v3.803c-.277.046-.55.069-.819.069a4.98 4.98 0 0 1-.818-.069v-3.365c0-.415-.063-.734-.19-.957s-.348-.334-.663-.334a1.48 1.48 0 0 0-.403.058c-.138.038-.263.113-.375.225a1.21 1.21 0 0 0-.27.466c-.069.2-.104.461-.104.784v3.123a4.98 4.98 0 0 1-.818.069c-.269 0-.542-.023-.819-.069v-5.958zm6.788-2.328c.3-.046.596-.069.888-.069.299 0 .599.023.898.069l-.115 5.635c-.269.047-.526.07-.772.07a4.43 4.43 0 0 1-.784-.07l-.115-5.635zm.046 8.286a5.26 5.26 0 0 1-.069-.841c0-.277.023-.561.069-.853a5.27 5.27 0 0 1 .842-.069c.276 0 .56.023.852.069a5.41 5.41 0 0 1 .07.841c0 .284-.024.569-.07.853-.292.046-.572.069-.841.069a5.34 5.34 0 0 1-.853-.069z"/></g></g><defs><linearGradient id="C" x1="0" y1="0" x2="1" y2="0" gradientUnits="userSpaceOnUse" gradientTransform="matrix(-13.627,-23.6027,23.9232,-13.8121,23.2246,28.2125)"><stop offset="0" stop-opacity=".21"/><stop offset=".58" stop-opacity="0"/></linearGradient><linearGradient id="D" x1="0" y1="0" x2="1" y2="0" gradientUnits="userSpaceOnUse" gradientTransform="matrix(15.683,27.1638,-27.5327,15.896,8.56961,2.82923)"><stop offset="0" stop-opacity=".21"/><stop offset=".58" stop-opacity="0"/></linearGradient><path id="E" d="M14.467 28.734c-.912-.078-1.575-.18-2.296-.352-3.897-.932-7.188-3.542-8.96-7.106a13.22 13.22 0 0 1-1.357-4.949c-.043-.568-.018-1.885.046-2.428a13.34 13.34 0 0 1 1.311-4.443c1.755-3.525 5.006-6.128 8.838-7.077 1.141-.282 2.112-.399 3.322-.398 2.489 0 4.887.658 6.978 1.914 3.785 2.275 6.182 6.138 6.516 10.503.044.573.019 1.932-.045 2.449-.199 1.618-.621 3.038-1.315 4.433-1.887 3.792-5.494 6.496-9.683 7.259-.802.146-1.284.187-2.289.197a28.91 28.91 0 0 1-1.066-.002h0z"/></defs></svg>